<?xml version="1.0" encoding="utf-8"?>
<svg viewBox="0 0 71 70" fill="none" xmlns="http://www.w3.org/2000/svg">
  <defs>
    <clipPath id="clip0_931_1722">
      <rect width="70" height="70" fill="white" transform="translate(0.5)"/>
    </clipPath>
  </defs>
  <g id="rumatkitalogo-33 1" clip-path="url(#clip0_931_1722)">
    <path id="Vector_2" d="M 39.297 9.738 C 39.297 12.466 37.959 14.895 35.904 16.384 L 34.841 17.045 L 20.695 25.817 L 19.882 26.326 L 19.882 50.072 C 19.882 55.408 15.55 59.737 10.214 59.737 C 4.878 59.737 0.549 55.408 0.549 50.072 L 0.549 24.603 C 0.549 21.181 2.243 18.162 4.838 16.329 L 5.843 15.707 L 19.882 7.009 L 26.169 3.107 L 27.327 2.388 C 28.445 1.809 29.711 1.492 31.064 1.492 C 33.256 1.492 35.228 2.347 36.705 3.74 L 37.229 4.358 L 37.476 4.651 L 37.929 5.202 C 38.801 6.512 39.297 8.069 39.297 9.738 Z" style="fill: rgb(139, 200, 60);"/>
    <path id="Vector_3" d="M 70.211 60.73 C 70.211 65.336 66.488 69.059 61.883 69.059 C 59.87 69.059 58.036 68.357 56.586 67.157 L 42.593 54.98 L 26.885 41.288 L 26.873 41.288 L 25.423 40.018 C 24.265 38.792 23.494 37.206 23.26 35.454 C 23.205 35.083 23.175 34.711 23.175 34.324 C 23.175 33.633 23.26 32.96 23.425 32.323 C 23.878 29.649 25.411 27.334 27.549 25.817 L 28.554 25.195 L 42.593 16.493 L 48.879 12.591 L 50.038 11.876 C 51.155 11.297 52.422 10.978 53.774 10.978 C 55.968 10.978 57.939 11.833 59.416 13.226 L 59.939 13.846 L 60.187 14.135 L 60.641 14.688 C 61.511 15.997 62.007 17.557 62.007 19.226 C 62.007 21.955 60.668 24.383 58.615 25.872 L 57.551 26.533 L 44.549 34.599 L 66.97 54.138 C 66.97 54.138 67.025 54.181 67.04 54.209 L 67.537 54.635 C 67.619 54.691 67.688 54.76 67.771 54.842 C 69.288 56.345 70.211 58.427 70.211 60.73 Z" style="fill: rgb(139, 200, 60);"/>
  </g>
</svg>